<svg xmlns="http://www.w3.org/2000/svg" viewBox="0 0 64 64" role="img" aria-labelledby="title desc">
  <title id="title">Learn Microbes brand mark</title>
  <desc id="desc">Notebook outline with a microbiology symbol for Learn Microbes.</desc>
  <defs>
    <linearGradient id="bg" x1="0%" y1="0%" x2="100%" y2="100%">
      <stop offset="0%" stop-color="#2c7873"/>
      <stop offset="100%" stop-color="#1d4a54"/>
    </linearGradient>
  </defs>

  <rect width="64" height="64" rx="14" fill="url(#bg)"/>

  <g transform="translate(16 12)" fill="none" stroke-linecap="round" stroke-linejoin="round">
    <path d="M8.5 4.5h15.5l6 6v23a4 4 0 0 1-4 4h-17.5a4 4 0 0 1-4-4v-25a4 4 0 0 1 4-4z" stroke="#f6fbf8" stroke-width="2.2"/>
    <path d="M24 4.5v6h6" stroke="#f6fbf8" stroke-width="2.2"/>

    <g stroke="#d6e6df" stroke-width="2.2">
      <path d="M1.5 10.5h3"/>
      <path d="M1.5 16.5h3"/>
      <path d="M1.5 22.5h3"/>
      <path d="M1.5 28.5h3"/>
    </g>

    <g stroke="#f6fbf8" stroke-width="1.8">
      <path d="M10 25h10"/>
      <path d="M10 29h12"/>
      <path d="M10 33h8"/>
    </g>

    <g transform="translate(18 10)">
      <circle cx="6.5" cy="6.5" r="4.7" stroke="#9fe3c1" stroke-width="1.9"/>
      <circle cx="6.5" cy="6.5" r="1.4" fill="#9fe3c1" stroke="none"/>
      <path d="M6.5 0.8v-1.9M6.5 14.2v-1.9M0.8 6.5h-1.9M14.2 6.5h-1.9M2.5 2.5 1.1 1.1M10.5 10.5l1.4 1.4M10.5 2.5l1.4-1.4M2.5 10.5l-1.4 1.4" stroke="#9fe3c1" stroke-width="1.6"/>
    </g>
  </g>
</svg>
